<?xml version="1.0" encoding="UTF-8" standalone="no"?>
<!DOCTYPE svg PUBLIC "-//W3C//DTD SVG 1.1//EN" "http://www.w3.org/Graphics/SVG/1.1/DTD/svg11.dtd">
<svg width="100%" height="100%" viewBox="0 0 24 24" version="1.1" xmlns="http://www.w3.org/2000/svg" xmlns:xlink="http://www.w3.org/1999/xlink" xml:space="preserve" xmlns:serif="http://www.serif.com/" style="fill-rule:evenodd;clip-rule:evenodd;stroke-linecap:round;stroke-linejoin:round;">
    <path d="M12,20L12,22" style="fill:none;fill-rule:nonzero;stroke:white;stroke-width:2px;"/>
    <path d="M12,2L12,4" style="fill:none;fill-rule:nonzero;stroke:white;stroke-width:2px;"/>
    <path d="M17,20L17,22" style="fill:none;fill-rule:nonzero;stroke:white;stroke-width:2px;"/>
    <path d="M17,2L17,4" style="fill:none;fill-rule:nonzero;stroke:white;stroke-width:2px;"/>
    <path d="M2,12L4,12" style="fill:none;fill-rule:nonzero;stroke:white;stroke-width:2px;"/>
    <path d="M2,17L4,17" style="fill:none;fill-rule:nonzero;stroke:white;stroke-width:2px;"/>
    <path d="M2,7L4,7" style="fill:none;fill-rule:nonzero;stroke:white;stroke-width:2px;"/>
    <path d="M20,12L22,12" style="fill:none;fill-rule:nonzero;stroke:white;stroke-width:2px;"/>
    <path d="M20,17L22,17" style="fill:none;fill-rule:nonzero;stroke:white;stroke-width:2px;"/>
    <path d="M20,7L22,7" style="fill:none;fill-rule:nonzero;stroke:white;stroke-width:2px;"/>
    <path d="M7,20L7,22" style="fill:none;fill-rule:nonzero;stroke:white;stroke-width:2px;"/>
    <path d="M7,2L7,4" style="fill:none;fill-rule:nonzero;stroke:white;stroke-width:2px;"/>
    <path d="M20,6L20,18C20,19.104 19.104,20 18,20L6,20C4.896,20 4,19.104 4,18L4,6C4,4.896 4.896,4 6,4L18,4C19.104,4 20,4.896 20,6ZM16,9C16,8.448 15.552,8 15,8L9,8C8.448,8 8,8.448 8,9L8,15C8,15.552 8.448,16 9,16L15,16C15.552,16 16,15.552 16,15L16,9Z" style="fill:none;stroke:white;stroke-width:2px;"/>
</svg>
